<svg width="21" height="21" viewBox="0 0 21 21" fill="none" xmlns="http://www.w3.org/2000/svg">
<path d="M19.133 14.2561C17.2153 14.2561 15.3864 13.8383 13.6997 13.0139C13.4353 12.8872 13.1286 12.8672 12.8486 12.9628C12.5686 13.0606 12.3397 13.265 12.2108 13.5295L11.4108 15.185C9.01081 13.8072 7.0197 11.8139 5.6397 9.4139L7.29747 8.6139C7.56414 8.48501 7.76636 8.25612 7.86414 7.97612C7.9597 7.69612 7.94192 7.38946 7.81303 7.12501C6.98636 5.44057 6.56859 3.61168 6.56859 1.69168C6.56859 1.07834 6.07081 0.580566 5.45747 0.580566H1.35525C0.741918 0.580566 0.244141 1.07834 0.244141 1.69168C0.244141 12.1072 8.71747 20.5806 19.133 20.5806C19.7464 20.5806 20.2441 20.0828 20.2441 19.4695V15.3672C20.2441 14.7539 19.7464 14.2561 19.133 14.2561Z" fill="black"/>
</svg>
