<svg width="20" height="21" viewBox="0 0 20 21" fill="none" xmlns="http://www.w3.org/2000/svg">
<g clip-path="url(#clip0)">
<path d="M19.3653 9.39558L10.4661 0.803301C10.2068 0.550592 9.79333 0.550592 9.53408 0.803301L0.635161 9.39524C0.504152 9.52168 0.430176 9.69593 0.430176 9.87802C0.430176 10.2486 0.730608 10.549 1.10116 10.549H2.28377V19.9428C2.28377 20.3134 2.58416 20.6138 2.95475 20.6138H7.65163C8.02222 20.6138 8.32262 20.3134 8.32262 19.9428V14.5749H11.6775V19.9428C11.6775 20.3134 11.9779 20.6138 12.3485 20.6138H17.0454C17.416 20.6138 17.7164 20.3134 17.7164 19.9428V10.549H18.899C19.0809 10.549 19.255 10.4752 19.3814 10.3443C19.639 10.0779 19.6317 9.65311 19.3653 9.39558ZM17.7164 9.87802C17.3458 9.87802 17.0454 10.1784 17.0454 10.549V19.9428H12.3485V14.5749C12.3485 14.2043 12.0481 13.9039 11.6775 13.9039H8.32262C7.95202 13.9039 7.65163 14.2043 7.65163 14.5749V19.9428H2.95475V10.549C2.95475 10.1784 2.65436 9.87802 2.28377 9.87802H1.10116L10.0001 1.28607L18.9023 9.87802H17.7164Z" fill="black"/>
</g>
<defs>
<clipPath id="clip0">
<rect width="20" height="20" fill="white" transform="translate(0 0.61377)"/>
</clipPath>
</defs>
</svg>
