<svg width="21" height="21" viewBox="0 0 21 21" fill="none" xmlns="http://www.w3.org/2000/svg">
<path d="M3.28742 8.17676C1.85557 8.17676 0.694824 9.3375 0.694824 10.7693C0.694824 12.2012 1.85557 13.3619 3.28742 13.3619C4.71928 13.3619 5.88002 12.2012 5.88002 10.7693C5.88002 9.3375 4.71928 8.17676 3.28742 8.17676ZM3.28742 12.3037C2.44002 12.3037 1.75303 11.6167 1.75303 10.7693C1.75303 9.92194 2.44002 9.23496 3.28742 9.23496C4.13483 9.23496 4.82182 9.92194 4.82182 10.7693C4.82182 11.6167 4.13488 12.3037 3.28742 12.3037Z" fill="#FAFAFA"/>
<path d="M19.6367 10.2402H7.679C7.38678 10.2402 7.1499 10.4771 7.1499 10.7693C7.1499 11.0616 7.38678 11.2985 7.679 11.2985H19.6367C19.9289 11.2985 20.1658 11.0616 20.1658 10.7693C20.1658 10.4771 19.9289 10.2402 19.6367 10.2402Z" fill="#FAFAFA"/>
<path d="M3.28742 0.769287C1.85557 0.769287 0.694824 1.93003 0.694824 3.36188C0.694824 4.79373 1.85557 5.95447 3.28742 5.95447C4.71928 5.95447 5.88002 4.79373 5.88002 3.36188C5.88002 1.93003 4.71928 0.769287 3.28742 0.769287ZM3.28742 4.89627C2.44002 4.89627 1.75303 4.20928 1.75303 3.36188C1.75303 2.51448 2.44002 1.82749 3.28742 1.82749C4.13483 1.82749 4.82182 2.51448 4.82182 3.36188C4.82182 4.20928 4.13488 4.89627 3.28742 4.89627Z" fill="#FAFAFA"/>
<path d="M7.679 3.89097H19.6367C19.9289 3.89097 20.1658 3.65409 20.1658 3.36187C20.1658 3.06964 19.9289 2.83276 19.6367 2.83276H7.679C7.38678 2.83276 7.1499 3.06964 7.1499 3.36187C7.1499 3.65409 7.38678 3.89097 7.679 3.89097Z" fill="#FAFAFA"/>
<path d="M3.28742 15.5841C1.85557 15.5841 0.694824 16.7448 0.694824 18.1767C0.694824 19.6085 1.85557 20.7693 3.28742 20.7693C4.71928 20.7693 5.88002 19.6085 5.88002 18.1767C5.88002 16.7448 4.71928 15.5841 3.28742 15.5841ZM4.82182 18.1767C4.82182 19.0241 4.13483 19.7111 3.28742 19.7111C2.44002 19.7111 1.75303 19.0241 1.75303 18.1767C1.75303 17.3293 2.44002 16.6423 3.28742 16.6423C4.13483 16.6423 4.82182 17.3293 4.82182 18.1767Z" fill="#FAFAFA"/>
<path d="M19.6367 17.6476H7.679C7.38678 17.6476 7.1499 17.8845 7.1499 18.1767C7.1499 18.4689 7.38678 18.7058 7.679 18.7058H19.6367C19.9289 18.7058 20.1658 18.4689 20.1658 18.1767C20.1658 17.8845 19.9289 17.6476 19.6367 17.6476Z" fill="#FAFAFA"/>
</svg>
